<svg width="50" height="50" viewBox="0 0 50 50" fill="none" xmlns="http://www.w3.org/2000/svg">
<rect width="50" height="50" fill="#2E7FF8"/>
<g filter="url(#filter0_d_1_6)">
<path d="M10 40V10C10.2941 20 16.7059 40 40 40" stroke="#EECDCD"/>
</g>
<g filter="url(#filter1_d_1_6)">
<path d="M5.88068 29V21.7273H6.76136V28.2188H10.142V29H5.88068ZM12.9972 29.1278C12.6515 29.1278 12.3378 29.0627 12.0561 28.9325C11.7744 28.8 11.5507 28.6094 11.3849 28.3608C11.2192 28.1098 11.1364 27.8068 11.1364 27.4517C11.1364 27.1392 11.1979 26.8859 11.321 26.6918C11.4441 26.4953 11.6087 26.3414 11.8146 26.2301C12.0206 26.1188 12.2479 26.036 12.4964 25.9815C12.7474 25.9247 12.9995 25.8797 13.2528 25.8466C13.5843 25.804 13.853 25.772 14.0589 25.7507C14.2673 25.727 14.4188 25.688 14.5135 25.6335C14.6106 25.5791 14.6591 25.4844 14.6591 25.3494V25.321C14.6591 24.9706 14.5632 24.6984 14.3714 24.5043C14.1821 24.3101 13.8944 24.2131 13.5085 24.2131C13.1084 24.2131 12.7947 24.3007 12.5675 24.4759C12.3402 24.651 12.1804 24.8381 12.0881 25.0369L11.2926 24.7528C11.4347 24.4214 11.6241 24.1634 11.8608 23.9787C12.0999 23.7917 12.3603 23.6615 12.642 23.5881C12.9261 23.5123 13.2055 23.4744 13.4801 23.4744C13.6553 23.4744 13.8565 23.4957 14.0838 23.5384C14.3134 23.5786 14.5348 23.6626 14.7479 23.7905C14.9633 23.9183 15.142 24.1113 15.2841 24.3693C15.4261 24.6274 15.4972 24.973 15.4972 25.4062V29H14.6591V28.2614H14.6165C14.5597 28.3797 14.465 28.5064 14.3324 28.6413C14.1998 28.7763 14.0234 28.8911 13.8033 28.9858C13.5831 29.0805 13.3144 29.1278 12.9972 29.1278ZM13.125 28.375C13.4564 28.375 13.7358 28.3099 13.9631 28.1797C14.1927 28.0495 14.3655 27.8814 14.4815 27.6754C14.5999 27.4695 14.6591 27.2528 14.6591 27.0256V26.2585C14.6236 26.3011 14.5455 26.3402 14.4247 26.3757C14.3063 26.4089 14.169 26.4384 14.0128 26.4645C13.8589 26.4882 13.7086 26.5095 13.5618 26.5284C13.4174 26.545 13.3002 26.5592 13.2102 26.571C12.9924 26.5994 12.7888 26.6456 12.5994 26.7095C12.4124 26.7711 12.2609 26.8646 12.1449 26.9901C12.0313 27.1132 11.9744 27.2812 11.9744 27.4943C11.9744 27.7855 12.0821 28.0057 12.2976 28.1548C12.5154 28.3016 12.7912 28.375 13.125 28.375ZM17.1404 29V21.7273H17.9785V24.4119H18.0495C18.1111 24.3172 18.1963 24.1965 18.3052 24.0497C18.4165 23.9006 18.5751 23.768 18.7811 23.652C18.9894 23.5336 19.2711 23.4744 19.6262 23.4744C20.0855 23.4744 20.4904 23.5893 20.8407 23.8189C21.1911 24.0485 21.4645 24.3741 21.661 24.7955C21.8575 25.2169 21.9558 25.714 21.9558 26.2869C21.9558 26.8646 21.8575 27.3653 21.661 27.7891C21.4645 28.2105 21.1923 28.5372 20.8443 28.7692C20.4963 28.9988 20.095 29.1136 19.6404 29.1136C19.2901 29.1136 19.0095 29.0556 18.7988 28.9396C18.5881 28.8213 18.426 28.6875 18.3123 28.5384C18.1987 28.3868 18.1111 28.2614 18.0495 28.1619H17.9501V29H17.1404ZM17.9643 26.2727C17.9643 26.6847 18.0247 27.0481 18.1454 27.3629C18.2662 27.6754 18.4425 27.9205 18.6745 28.098C18.9065 28.2732 19.1906 28.3608 19.5268 28.3608C19.8772 28.3608 20.1696 28.2685 20.4039 28.0838C20.6407 27.8968 20.8182 27.6458 20.9366 27.331C21.0574 27.0137 21.1177 26.661 21.1177 26.2727C21.1177 25.8892 21.0585 25.5436 20.9402 25.2358C20.8242 24.9257 20.6478 24.6806 20.411 24.5007C20.1767 24.3184 19.8819 24.2273 19.5268 24.2273C19.1859 24.2273 18.8994 24.3137 18.6674 24.4865C18.4354 24.657 18.2602 24.8961 18.1419 25.2038C18.0235 25.5092 17.9643 25.8655 17.9643 26.2727ZM25.5247 29.1136C24.9991 29.1136 24.5458 28.9976 24.1646 28.7656C23.7858 28.5312 23.4934 28.2045 23.2875 27.7855C23.0839 27.3641 22.9821 26.8741 22.9821 26.3153C22.9821 25.7566 23.0839 25.2642 23.2875 24.8381C23.4934 24.4096 23.7799 24.0758 24.1468 23.8366C24.5162 23.5952 24.947 23.4744 25.4395 23.4744C25.7235 23.4744 26.0041 23.5218 26.2811 23.6165C26.5581 23.7112 26.8102 23.8651 27.0375 24.0781C27.2647 24.2888 27.4458 24.5682 27.5808 24.9162C27.7157 25.2642 27.7832 25.6927 27.7832 26.2017V26.5568H23.5787V25.8324H26.9309C26.9309 25.5246 26.8694 25.25 26.7463 25.0085C26.6255 24.767 26.4527 24.5765 26.2278 24.4368C26.0053 24.2971 25.7425 24.2273 25.4395 24.2273C25.1056 24.2273 24.8168 24.3101 24.573 24.4759C24.3315 24.6392 24.1457 24.8523 24.0154 25.1151C23.8852 25.3778 23.8201 25.6596 23.8201 25.9602V26.4432C23.8201 26.8551 23.8912 27.2043 24.0332 27.4908C24.1776 27.7749 24.3777 27.9915 24.6333 28.1406C24.889 28.2874 25.1861 28.3608 25.5247 28.3608C25.7449 28.3608 25.9437 28.33 26.1213 28.2685C26.3012 28.2045 26.4563 28.1098 26.5865 27.9844C26.7167 27.8565 26.8173 27.6979 26.8883 27.5085L27.698 27.7358C27.6127 28.0104 27.4695 28.2519 27.2683 28.4602C27.0671 28.6662 26.8185 28.8272 26.5225 28.9432C26.2266 29.0568 25.894 29.1136 25.5247 29.1136ZM29.8961 21.7273V29H29.0581V21.7273H29.8961ZM31.4311 29V23.5455H32.2692V29H31.4311ZM31.8572 22.6364C31.6939 22.6364 31.553 22.5807 31.4347 22.4695C31.3187 22.3582 31.2607 22.2244 31.2607 22.0682C31.2607 21.9119 31.3187 21.7782 31.4347 21.6669C31.553 21.5556 31.6939 21.5 31.8572 21.5C32.0206 21.5 32.1603 21.5556 32.2763 21.6669C32.3946 21.7782 32.4538 21.9119 32.4538 22.0682C32.4538 22.2244 32.3946 22.3582 32.2763 22.4695C32.1603 22.5807 32.0206 22.6364 31.8572 22.6364ZM34.6422 25.7188V29H33.8042V23.5455H34.6138V24.3977H34.6848C34.8127 24.1207 35.0068 23.8982 35.2672 23.7301C35.5276 23.5597 35.8638 23.4744 36.2757 23.4744C36.6451 23.4744 36.9682 23.5502 37.2452 23.7017C37.5222 23.8509 37.7376 24.0781 37.8915 24.3835C38.0454 24.6866 38.1223 25.0701 38.1223 25.5341V29H37.2843V25.5909C37.2843 25.1624 37.173 24.8286 36.9505 24.5895C36.7279 24.348 36.4225 24.2273 36.0343 24.2273C35.7667 24.2273 35.5276 24.2853 35.3169 24.4013C35.1086 24.5173 34.9441 24.6866 34.8233 24.9091C34.7026 25.1316 34.6422 25.4015 34.6422 25.7188ZM41.8555 31.1591C41.4506 31.1591 41.1026 31.107 40.8114 31.0028C40.5202 30.901 40.2776 30.7661 40.0835 30.598C39.8917 30.4323 39.739 30.2547 39.6254 30.0653L40.293 29.5966C40.3687 29.696 40.4646 29.8097 40.5806 29.9375C40.6966 30.0677 40.8552 30.1802 41.0565 30.2749C41.2601 30.3719 41.5264 30.4205 41.8555 30.4205C42.2958 30.4205 42.6592 30.3139 42.9457 30.1009C43.2321 29.8878 43.3754 29.554 43.3754 29.0994V27.9915H43.3043C43.2428 28.0909 43.1552 28.214 43.0415 28.3608C42.9303 28.5052 42.7693 28.6342 42.5586 28.7479C42.3503 28.8591 42.0685 28.9148 41.7134 28.9148C41.2731 28.9148 40.8777 28.8106 40.5273 28.6023C40.1793 28.3939 39.9035 28.0909 39.6999 27.6932C39.4987 27.2955 39.3981 26.8125 39.3981 26.2443C39.3981 25.6856 39.4963 25.1991 39.6928 24.7848C39.8893 24.3681 40.1628 24.0462 40.5131 23.8189C40.8635 23.5893 41.2683 23.4744 41.7276 23.4744C42.0827 23.4744 42.3645 23.5336 42.5728 23.652C42.7835 23.768 42.9445 23.9006 43.0558 24.0497C43.1694 24.1965 43.257 24.3172 43.3185 24.4119H43.4038V23.5455H44.2134V29.1562C44.2134 29.625 44.1069 30.0062 43.8938 30.2997C43.6831 30.5956 43.399 30.8123 43.0415 30.9496C42.6864 31.0893 42.2911 31.1591 41.8555 31.1591ZM41.8271 28.1619C42.1632 28.1619 42.4473 28.085 42.6793 27.9311C42.9113 27.7772 43.0877 27.5559 43.2085 27.267C43.3292 26.9782 43.3896 26.6326 43.3896 26.2301C43.3896 25.8371 43.3304 25.4903 43.212 25.1896C43.0936 24.889 42.9184 24.6534 42.6864 24.483C42.4544 24.3125 42.168 24.2273 41.8271 24.2273C41.4719 24.2273 41.176 24.3172 40.9393 24.4972C40.7049 24.6771 40.5285 24.9186 40.4102 25.2216C40.2942 25.5246 40.2362 25.8608 40.2362 26.2301C40.2362 26.6089 40.2953 26.9439 40.4137 27.2351C40.5344 27.5239 40.712 27.7512 40.9464 27.9169C41.1831 28.0803 41.4767 28.1619 41.8271 28.1619Z" fill="#301F1F"/>
</g>
<defs>
<filter id="filter0_d_1_6" x="5.5" y="9.98535" width="38.5" height="38.5146" filterUnits="userSpaceOnUse" color-interpolation-filters="sRGB">
<feFlood flood-opacity="0" result="BackgroundImageFix"/>
<feColorMatrix in="SourceAlpha" type="matrix" values="0 0 0 0 0 0 0 0 0 0 0 0 0 0 0 0 0 0 127 0" result="hardAlpha"/>
<feOffset dy="4"/>
<feGaussianBlur stdDeviation="2"/>
<feComposite in2="hardAlpha" operator="out"/>
<feColorMatrix type="matrix" values="0 0 0 0 0 0 0 0 0 0 0 0 0 0 0 0 0 0 0.25 0"/>
<feBlend mode="normal" in2="BackgroundImageFix" result="effect1_dropShadow_1_6"/>
<feBlend mode="normal" in="SourceGraphic" in2="effect1_dropShadow_1_6" result="shape"/>
</filter>
<filter id="filter1_d_1_6" x="1.88068" y="21.5" width="46.3328" height="17.6592" filterUnits="userSpaceOnUse" color-interpolation-filters="sRGB">
<feFlood flood-opacity="0" result="BackgroundImageFix"/>
<feColorMatrix in="SourceAlpha" type="matrix" values="0 0 0 0 0 0 0 0 0 0 0 0 0 0 0 0 0 0 127 0" result="hardAlpha"/>
<feOffset dy="4"/>
<feGaussianBlur stdDeviation="2"/>
<feComposite in2="hardAlpha" operator="out"/>
<feColorMatrix type="matrix" values="0 0 0 0 0 0 0 0 0 0 0 0 0 0 0 0 0 0 0.25 0"/>
<feBlend mode="normal" in2="BackgroundImageFix" result="effect1_dropShadow_1_6"/>
<feBlend mode="normal" in="SourceGraphic" in2="effect1_dropShadow_1_6" result="shape"/>
</filter>
</defs>
</svg>
